<svg xmlns="http://www.w3.org/2000/svg" xmlns:xlink="http://www.w3.org/1999/xlink" viewBox="0 0 683.45 684.88"><defs><style>.cls-1{isolation:isolate;}.cls-19,.cls-2,.cls-25,.cls-31{mix-blend-mode:multiply;}.cls-2{fill:url(#linear-gradient);}.cls-3{fill:#7982bd;}.cls-4{fill:#878fc9;}.cls-5,.cls-6{fill:#fff;}.cls-5{opacity:0.15;}.cls-19,.cls-25,.cls-31,.cls-6{opacity:0.3;}.cls-7{fill:url(#linear-gradient-2);}.cls-8{fill:url(#radial-gradient);}.cls-11,.cls-13,.cls-9{opacity:0.5;mix-blend-mode:color-dodge;}.cls-9{fill:url(#radial-gradient-2);}.cls-10{fill:url(#radial-gradient-3);}.cls-11{fill:url(#radial-gradient-4);}.cls-12{fill:url(#radial-gradient-5);}.cls-13{fill:url(#radial-gradient-6);}.cls-14{fill:url(#linear-gradient-3);}.cls-15{fill:url(#linear-gradient-4);}.cls-16{fill:url(#linear-gradient-5);}.cls-17{fill:url(#linear-gradient-6);}.cls-18{fill:url(#linear-gradient-7);}.cls-19{fill:url(#linear-gradient-8);}.cls-20{fill:url(#linear-gradient-9);}.cls-21{fill:url(#linear-gradient-10);}.cls-22{fill:url(#linear-gradient-11);}.cls-23{fill:url(#linear-gradient-12);}.cls-24{fill:url(#linear-gradient-13);}.cls-25{fill:url(#linear-gradient-14);}.cls-26{fill:url(#linear-gradient-15);}.cls-27{fill:url(#linear-gradient-16);}.cls-28{fill:url(#linear-gradient-17);}.cls-29{fill:url(#linear-gradient-18);}.cls-30{fill:url(#linear-gradient-19);}.cls-31{fill:url(#linear-gradient-20);}</style><linearGradient id="linear-gradient" x1="355.93" y1="361.84" x2="282.87" y2="193.04" gradientUnits="userSpaceOnUse"><stop offset="0" stop-color="#fff"/><stop offset="1" stop-color="#afb6e5"/></linearGradient><linearGradient id="linear-gradient-2" x1="322.22" y1="291.01" x2="276.73" y2="188.65" gradientUnits="userSpaceOnUse"><stop offset="0" stop-color="#4258bd"/><stop offset="1" stop-color="#262973"/></linearGradient><radialGradient id="radial-gradient" cx="7190.7" cy="347.35" r="279.9" gradientTransform="matrix(-1, 0, 0, 1, 7548.24, 0)" gradientUnits="userSpaceOnUse"><stop offset="0" stop-color="#72e9bd"/><stop offset="0.47" stop-color="#2ac7c5"/><stop offset="0.61" stop-color="#35b8d0"/><stop offset="0.87" stop-color="#538fec"/><stop offset="0.96" stop-color="#5e80f7"/></radialGradient><radialGradient id="radial-gradient-2" cx="7419.27" cy="244.97" r="131.67" gradientTransform="matrix(-1, 0, 0, 1, 7548.24, 0)" gradientUnits="userSpaceOnUse"><stop offset="0" stop-color="#972a74"/><stop offset="0.04" stop-color="#8a266a"/><stop offset="0.19" stop-color="#601b4a"/><stop offset="0.35" stop-color="#3d112f"/><stop offset="0.51" stop-color="#230a1b"/><stop offset="0.67" stop-color="#0f040c"/><stop offset="0.83" stop-color="#040103"/><stop offset="1"/></radialGradient><radialGradient id="radial-gradient-3" cx="7218.18" cy="107.33" r="238.12" xlink:href="#radial-gradient"/><radialGradient id="radial-gradient-4" cx="7118.33" cy="132.29" r="138.84" xlink:href="#radial-gradient-2"/><radialGradient id="radial-gradient-5" cx="7384.82" cy="-1525.08" r="244.65" gradientTransform="matrix(-0.9, 0.43, 0.43, 0.9, 7615.43, -1633.48)" xlink:href="#radial-gradient"/><radialGradient id="radial-gradient-6" cx="7201.47" cy="186.57" r="110.66" xlink:href="#radial-gradient-2"/><linearGradient id="linear-gradient-3" x1="432.86" y1="338.92" x2="360.82" y2="362.04" gradientUnits="userSpaceOnUse"><stop offset="0" stop-color="#fcb148"/><stop offset="0.05" stop-color="#fdba46"/><stop offset="0.14" stop-color="#ffc244"/><stop offset="0.32" stop-color="#ffc444"/><stop offset="0.48" stop-color="#fdb946"/><stop offset="0.78" stop-color="#f99c4d"/><stop offset="0.87" stop-color="#f8924f"/><stop offset="1" stop-color="#f8924f"/></linearGradient><linearGradient id="linear-gradient-4" x1="491.15" y1="267.2" x2="426.83" y2="409.1" gradientUnits="userSpaceOnUse"><stop offset="0" stop-color="#ffdb44"/><stop offset="1" stop-color="#feef06"/></linearGradient><linearGradient id="linear-gradient-5" x1="479.32" y1="417.03" x2="466.91" y2="349.23" xlink:href="#linear-gradient-3"/><linearGradient id="linear-gradient-6" x1="453" y1="307.29" x2="504.15" y2="415.87" xlink:href="#linear-gradient-3"/><linearGradient id="linear-gradient-7" x1="450.96" y1="283.93" x2="476.68" y2="380.31" xlink:href="#linear-gradient-4"/><linearGradient id="linear-gradient-8" x1="437.96" y1="314.32" x2="489" y2="422.67" xlink:href="#linear-gradient-3"/><linearGradient id="linear-gradient-9" x1="461.88" y1="456" x2="420.19" y2="469.38" xlink:href="#linear-gradient-3"/><linearGradient id="linear-gradient-10" x1="495.61" y1="414.5" x2="458.39" y2="496.62" xlink:href="#linear-gradient-4"/><linearGradient id="linear-gradient-11" x1="488.76" y1="501.21" x2="481.58" y2="461.97" xlink:href="#linear-gradient-3"/><linearGradient id="linear-gradient-12" x1="473.54" y1="437.7" x2="503.13" y2="500.53" xlink:href="#linear-gradient-3"/><linearGradient id="linear-gradient-13" x1="472.36" y1="424.18" x2="487.24" y2="479.96" xlink:href="#linear-gradient-4"/><linearGradient id="linear-gradient-14" x1="464.83" y1="441.77" x2="494.37" y2="504.47" xlink:href="#linear-gradient-3"/><linearGradient id="linear-gradient-15" x1="299.18" y1="438.62" x2="205.67" y2="468.63" xlink:href="#linear-gradient-3"/><linearGradient id="linear-gradient-16" x1="374.82" y1="345.55" x2="291.35" y2="529.71" xlink:href="#linear-gradient-4"/><linearGradient id="linear-gradient-17" x1="359.47" y1="540" x2="343.36" y2="452.01" xlink:href="#linear-gradient-3"/><linearGradient id="linear-gradient-18" x1="325.32" y1="397.58" x2="391.7" y2="538.49" xlink:href="#linear-gradient-3"/><linearGradient id="linear-gradient-19" x1="295.98" y1="460.06" x2="382.37" y2="361.23" xlink:href="#linear-gradient-4"/><linearGradient id="linear-gradient-20" x1="305.61" y1="407" x2="371.86" y2="547.62" xlink:href="#linear-gradient-3"/></defs><g class="cls-1"><g id="Layer_1" data-name="Layer 1"><path class="cls-2" d="M276.61,195.54c99.32-46.93,212.11-16.67,251.93,67.6a489.92,489.92,0,0,0-36,37.93,146.24,146.24,0,0,0-58.11,19.3c-43.06-1.75-133.54,38.34-156.28,73.85-60.59-10.46-123.45,2.15-113.49,23.21-5.43-11.49-8.54-25.29-9.64-40.66C152.05,306,198.54,232.43,276.61,195.54Z"/><polygon class="cls-3" points="375.79 471.65 384.45 467.45 291.41 217.39 282.76 221.59 375.79 471.65"/><path class="cls-4" d="M306.7,265.13a4.69,4.69,0,0,0,2.08-.48,4.81,4.81,0,0,0,2.25-6.42l-36.56-76.09a4.81,4.81,0,0,0-8.67,4.16l36.56,76.1A4.82,4.82,0,0,0,306.7,265.13Z"/><path class="cls-5" d="M307.73,261.18a1.78,1.78,0,0,0,.74-.17,1.73,1.73,0,0,0,.8-2.3l-36.56-76.09a1.72,1.72,0,1,0-3.09,1.49l36.56,76.09A1.71,1.71,0,0,0,307.73,261.18Z"/><path class="cls-6" d="M308.07,259.63l.15,0a.35.35,0,0,0,.16-.46L271.82,183a.35.35,0,0,0-.31-.19l-.15,0a.35.35,0,0,0-.16.46l36.56,76.1A.34.34,0,0,0,308.07,259.63Z"/><path class="cls-5" d="M303.72,262.15l.15,0a.35.35,0,0,0,.16-.46l-36.56-76.1a.35.35,0,0,0-.31-.19.33.33,0,0,0-.15,0,.35.35,0,0,0-.16.46L303.41,262A.34.34,0,0,0,303.72,262.15Z"/><path class="cls-7" d="M251.05,340.42a2.2,2.2,0,0,1-2.14-1.7c-.09-.27-.32-.83-.55-1.4a11.72,11.72,0,0,1-.78-2.21C236,260.84,246.64,210,276.9,195.73s76.08,9.59,125.94,65.43a14.2,14.2,0,0,1,1.36,2.17c.36.63.72,1.26.9,1.51a2.25,2.25,0,0,1-.37,3.06,2.16,2.16,0,0,1-3-.21,15.4,15.4,0,0,1-1.35-2.16c-.36-.63-.72-1.27-.91-1.52-48.39-54.2-92.42-77.67-120.69-64.29s-38.16,62.5-26.86,134.71c0,.06.28.65.52,1.25a12.25,12.25,0,0,1,.77,2.18,2.2,2.2,0,0,1-1.82,2.53Z"/><path class="cls-8" d="M168.88,433.1c-39.82-84.27,8.41-190.63,107.73-237.56h0C245.22,210.38,236.39,264.36,248,337.2,191.84,374.22,158.92,412,168.88,433.1Z"/><path class="cls-9" d="M165.53,381.28C182.75,359,210,338.2,229,325.15c-5.05-36-5-66.51,0-90.58C183.33,274,159.26,329.32,165.53,381.28Z"/><path class="cls-10" d="M276.61,195.54c99.32-46.93,212.11-16.67,251.93,67.6-9.95-21.06-70.19-31.51-124.3.2C355.32,208.16,308,180.7,276.61,195.54Z"/><path class="cls-11" d="M407.19,240.65c21.75-10.77,45.9-16.62,69.09-16.62,4,0,7.84.16,11.58.49-28.4-27.11-69.2-42.84-114.81-42.84a203.7,203.7,0,0,0-34.34,3C363.76,197.87,387.8,219.78,407.19,240.65Z"/><path class="cls-12" d="M276.61,195.54h0c31.39-14.84,78.71,12.62,127.63,67.8C361.18,261.59,270.69,301.69,248,337.2,236.39,264.36,245.22,210.38,276.61,195.54Z"/><path class="cls-13" d="M299.29,293.47c21-17.12,54.84-32.14,81.13-37.52-21.32-21-69.13-58.85-83.53-58.85a20,20,0,0,0-8.76,1.85C274.17,205.54,287.27,251.78,299.29,293.47Z"/><path class="cls-14" d="M515.81,336.3c0,33.43-26.14,59.72-59.54,58.69-34.77-1.07-64-31.09-64-67s29.23-62,64-58.39C489.67,273.06,515.81,302.88,515.81,336.3Z"/><path class="cls-15" d="M524.83,333.42c0,33.42-26.13,59.72-59.54,58.69-34.76-1.07-64-31.09-64-67s29.24-62,64-58.39C498.7,270.18,524.83,300,524.83,333.42Z"/><path class="cls-16" d="M522.21,333.24c0,31.95-25,57.05-56.92,56-33.15-1.07-61-29.72-61-64s27.83-59.13,61-55.73C497.21,272.83,522.21,301.29,522.21,333.24Z"/><path class="cls-17" d="M520.33,333.12c0,30.89-24.19,55.13-55,54.09-32-1.07-58.83-28.74-58.83-61.77s26.84-57.08,58.83-53.84C496.14,274.72,520.33,302.22,520.33,333.12Z"/><path class="cls-18" d="M465,282.11h0a3.36,3.36,0,0,1,3,3.3v5.69a81.07,81.07,0,0,1,9.86,1.71q3.63.85,7.23,2a3.33,3.33,0,0,1,2.26,3.42l-.69,7.13a2.68,2.68,0,0,1-3.82,2.22,42.21,42.21,0,0,0-4.85-1.81,44.64,44.64,0,0,0-9.15-1.71L468,304v16.3q12.84,3.58,18.91,9.67a20.41,20.41,0,0,1,6.06,15.09q0,9.8-6.7,15.7c-4.5,4-10.8,6.19-19,6.67v6.28a2.85,2.85,0,0,1-3,2.9h-.05a3.15,3.15,0,0,1-3-3.15v-6.19l-1.32-.06a86.24,86.24,0,0,1-11-1.17,69.06,69.06,0,0,1-7.58-1.75,3.26,3.26,0,0,1-2.38-3.38l.82-9.17a2.9,2.9,0,0,1,4.05-2.39,59,59,0,0,0,17.35,4l.05-18.12q-12.33-3-18.42-9a20.66,20.66,0,0,1-6.1-15.37q0-9.69,6.62-14.94t18.64-5.2v-5.82A2.68,2.68,0,0,1,465,282.11Zm-3,21.75a10,10,0,0,0-5.94,2.09,6.09,6.09,0,0,0-2.13,4.89,6.57,6.57,0,0,0,2,4.86,13.91,13.91,0,0,0,6.1,3.11Zm5.27,32.81v16.62a9.17,9.17,0,0,0,6.35-2,7.11,7.11,0,0,0,2.21-5.6,7.64,7.64,0,0,0-2.05-5.47A15.14,15.14,0,0,0,467.27,336.67Z"/><path class="cls-19" d="M455.33,340.68c1.86-18.36,18.74-26.14,16.54-43-1.36-10.42-9.25-19.19-18.05-26-26.71,2.8-47.36,24.91-47.36,53.83,0,33,26.84,60.7,58.83,61.77a54.64,54.64,0,0,0,9.1-.44C461.68,374.12,453.74,356.46,455.33,340.68Z"/><path class="cls-20" d="M509.88,454.49c0,19.34-15.12,34.56-34.45,34-20.12-.61-37-18-37-38.78s16.92-35.88,37-33.79C494.76,417.89,509.88,435.15,509.88,454.49Z"/><path class="cls-21" d="M515.1,452.82c0,19.34-15.12,34.56-34.45,34-20.12-.62-37-18-37-38.79s16.92-35.88,37-33.79C500,416.23,515.1,433.48,515.1,452.82Z"/><path class="cls-22" d="M513.59,452.72c0,18.49-14.47,33-32.94,32.41-19.18-.62-35.29-17.2-35.29-37s16.11-34.22,35.29-32.25C499.12,417.76,513.59,434.23,513.59,452.72Z"/><path class="cls-23" d="M512.5,452.65c0,17.88-14,31.9-31.85,31.3-18.52-.62-34-16.63-34-35.75s15.53-33,34-31.15C498.5,418.85,512.5,434.77,512.5,452.65Z"/><path class="cls-24" d="M480.47,423.13h0a1.93,1.93,0,0,1,1.71,1.91v3.29a47.38,47.38,0,0,1,5.71,1c1.4.33,2.8.72,4.18,1.18a1.92,1.92,0,0,1,1.32,2L493,436.6a1.55,1.55,0,0,1-2.21,1.29,23.61,23.61,0,0,0-2.8-1.05,26.45,26.45,0,0,0-5.3-1l-.49,0v9.43c5,1.39,8.6,3.25,10.95,5.6a11.82,11.82,0,0,1,3.51,8.73,11.49,11.49,0,0,1-3.88,9.08q-3.9,3.45-11,3.87v3.63a1.66,1.66,0,0,1-1.72,1.68h0a1.84,1.84,0,0,1-1.73-1.82v-3.59l-.76,0a51,51,0,0,1-6.36-.68,41.81,41.81,0,0,1-4.39-1,1.89,1.89,0,0,1-1.37-2l.47-5.3a1.68,1.68,0,0,1,2.35-1.39,34.14,34.14,0,0,0,3.86,1.27,33.27,33.27,0,0,0,6.17,1l0-10.49c-4.75-1.17-8.31-2.92-10.65-5.22a12,12,0,0,1-3.53-8.9A10.4,10.4,0,0,1,468,431.1q3.81-3,10.79-3v-3.36A1.56,1.56,0,0,1,480.47,423.13Zm-1.73,12.58a5.82,5.82,0,0,0-3.43,1.22,3.5,3.5,0,0,0-1.24,2.83,3.79,3.79,0,0,0,1.14,2.81,8.14,8.14,0,0,0,3.53,1.8Zm3.05,19v9.62a5.37,5.37,0,0,0,3.68-1.14,4.14,4.14,0,0,0,1.28-3.24,4.41,4.41,0,0,0-1.19-3.16A8.86,8.86,0,0,0,481.79,454.7Z"/><path class="cls-25" d="M474.89,457c1.07-10.63,10.84-15.13,9.56-24.91-.78-6-5.35-11.1-10.44-15.07-15.46,1.62-27.41,14.42-27.41,31.15,0,19.12,15.53,35.13,34,35.75a32.6,32.6,0,0,0,5.26-.25C478.56,476.38,474,466.16,474.89,457Z"/><path class="cls-26" d="M406.83,435.23c0,43.38-33.92,77.5-77.28,76.17-45.11-1.38-83.06-40.35-83.06-87s37.95-80.48,83.06-75.78C372.91,353.15,406.83,391.85,406.83,435.23Z"/><path class="cls-27" d="M418.54,431.49c0,43.38-33.92,77.5-77.27,76.17-45.12-1.38-83.06-40.35-83.06-87s37.94-80.48,83.06-75.78C384.62,349.41,418.54,388.11,418.54,431.49Z"/><path class="cls-28" d="M415.14,431.26c0,41.47-32.46,74-73.87,72.69-43-1.39-79.15-38.58-79.15-83s36.13-76.74,79.15-72.33C382.68,352.85,415.14,389.79,415.14,431.26Z"/><path class="cls-29" d="M412.7,431.1c0,40.1-31.4,71.55-71.43,70.21-41.53-1.4-76.35-37.31-76.35-80.18s34.82-74.08,76.35-69.87C381.3,355.31,412.7,391,412.7,431.1Z"/><path class="cls-30" d="M345.86,433.89h17.8V445.8H345.73v6.94h17.93v11.91H345.73v9.42H330.55v-9.42h-16V452.74h16V445.8h-16.1V433.89h16l-35.08-55.1h18.71l24.61,38.74,24.08-38.74h18.72Z"/><path class="cls-31" d="M328.17,441.21c2.41-23.83,24.32-33.92,21.46-55.85-1.76-13.51-12-24.9-23.43-33.79-34.66,3.63-61.46,32.33-61.46,69.86,0,42.86,34.82,78.78,76.35,80.17a71.75,71.75,0,0,0,11.8-.57C336.4,484.62,326.09,461.69,328.17,441.21Z"/></g></g></svg>